<svg xmlns="http://www.w3.org/2000/svg" viewBox="0 0 64 64" fill="none">
  <path d="M32 4C18.745 4 8 14.745 8 28c0 6.627 2.686 12.627 7.029 16.971C15.029 48 20 56 20 60h24c0-4 4.971-12 4.971-15.029C53.314 40.627 56 34.627 56 28 56 14.745 45.255 4 32 4z" fill="white" stroke="#9E9E9E" stroke-width="2.5"/>
  <circle cx="23" cy="26" r="4.5" fill="white" stroke="#37474F" stroke-width="2"/>
  <circle cx="23" cy="26" r="2" fill="#37474F"/>
  <circle cx="41" cy="26" r="4.5" fill="white" stroke="#37474F" stroke-width="2"/>
  <circle cx="41" cy="26" r="2" fill="#37474F"/>
  <path d="M24 38c0 0 3.5 5 8 5s8-5 8-5" stroke="#37474F" stroke-width="2.5" stroke-linecap="round"/>
</svg>